<svg width="36" height="37" viewBox="0 0 36 37" fill="none" xmlns="http://www.w3.org/2000/svg">
<path d="M5.81415 9.50483C5.81415 8.7233 6.08861 8.07855 6.63752 7.57057C7.18642 7.06258 7.90002 6.80859 8.77827 6.80859C9.64085 6.80859 10.3387 7.05866 10.872 7.55885C11.4209 8.07465 11.6953 8.74674 11.6953 9.57517C11.6953 10.3254 11.4287 10.9506 10.8955 11.4508C10.3466 11.9666 9.62516 12.2245 8.73122 12.2245H8.7077C7.84511 12.2245 7.14723 11.9666 6.61399 11.4508C6.08075 10.935 5.81415 10.2863 5.81415 9.50483ZM6.11997 30.0197V14.3581H11.3425V30.0197H6.11997ZM14.236 30.0197H19.4585V21.2745C19.4585 20.7274 19.5213 20.3054 19.6467 20.0084C19.8663 19.477 20.1995 19.0276 20.6465 18.6603C21.0935 18.293 21.6542 18.1094 22.3285 18.1094C24.0851 18.1094 24.9633 19.2894 24.9633 21.6496V30.0197H30.1858V21.04C30.1858 18.7267 29.6369 16.9722 28.5391 15.7765C27.4412 14.5808 25.9906 13.9829 24.187 13.9829C22.1639 13.9829 20.5877 14.8504 19.4585 16.5854V16.6323H19.435L19.4585 16.5854V14.3581H14.236C14.2674 14.8582 14.2831 16.4134 14.2831 19.0237C14.2831 21.634 14.2674 25.2993 14.236 30.0197Z" fill="white"/>
</svg>
