<svg width="365" height="129" viewBox="0 0 365 129" fill="none" xmlns="http://www.w3.org/2000/svg">
<g filter="url(#filter0_d_2411_65638)">
<path d="M28.4995 26.4336C28.4995 23.1199 31.1858 20.4336 34.4995 20.4336H330.5C333.813 20.4336 336.5 23.1199 336.5 26.4336V86.4336C336.5 89.7473 333.813 92.4336 330.5 92.4336H34.4995C31.1858 92.4336 28.4995 89.7473 28.4995 86.4336V26.4336Z" fill="white"/>
<path d="M141.788 55.7736H148.574V56.8176C148.574 57.8736 148.286 58.8516 147.71 59.7516C147.146 60.6396 146.378 61.3476 145.406 61.8756C144.434 62.4036 143.378 62.6676 142.238 62.6676C141.062 62.6676 139.976 62.3796 138.98 61.8036C137.984 61.2156 137.192 60.4236 136.604 59.4276C136.028 58.4316 135.74 57.3456 135.74 56.1696C135.74 54.9936 136.028 53.9076 136.604 52.9116C137.192 51.9156 137.984 51.1296 138.98 50.5536C139.976 49.9656 141.062 49.6716 142.238 49.6716C143.318 49.6716 144.32 49.9236 145.244 50.4276C146.18 50.9316 146.942 51.6096 147.53 52.4616L145.676 53.9016C145.304 53.3376 144.812 52.8876 144.2 52.5516C143.588 52.2036 142.934 52.0296 142.238 52.0296C141.494 52.0296 140.798 52.2156 140.15 52.5876C139.514 52.9596 139.01 53.4636 138.638 54.0996C138.266 54.7356 138.08 55.4256 138.08 56.1696C138.08 56.9136 138.266 57.6036 138.638 58.2396C139.01 58.8756 139.514 59.3796 140.15 59.7516C140.798 60.1236 141.494 60.3096 142.238 60.3096C143.102 60.3096 143.858 60.0996 144.506 59.6796C145.166 59.2596 145.64 58.7016 145.928 58.0056H141.788V55.7736ZM154.255 53.1996C155.119 53.1996 155.893 53.4156 156.577 53.8476C157.273 54.2676 157.813 54.8376 158.197 55.5576C158.581 56.2776 158.773 57.0756 158.773 57.9516C158.773 58.2396 158.749 58.5036 158.701 58.7436H151.753C151.933 59.3796 152.251 59.8776 152.707 60.2376C153.163 60.5856 153.745 60.7596 154.453 60.7596C154.885 60.7596 155.299 60.6636 155.695 60.4716C156.103 60.2796 156.409 60.0336 156.613 59.7336L158.323 60.7416C157.903 61.3656 157.357 61.8456 156.685 62.1816C156.025 62.5056 155.263 62.6676 154.399 62.6676C153.439 62.6676 152.587 62.4636 151.843 62.0556C151.099 61.6476 150.523 61.0836 150.115 60.3636C149.719 59.6436 149.521 58.8336 149.521 57.9336C149.521 57.0456 149.719 56.2416 150.115 55.5216C150.523 54.8016 151.087 54.2376 151.807 53.8296C152.527 53.4096 153.343 53.1996 154.255 53.1996ZM156.685 56.9976C156.589 56.4216 156.319 55.9716 155.875 55.6476C155.443 55.3116 154.897 55.1436 154.237 55.1436C153.781 55.1436 153.361 55.2276 152.977 55.3956C152.605 55.5636 152.305 55.7916 152.077 56.0796C151.849 56.3676 151.729 56.6736 151.717 56.9976H156.685ZM163.211 59.3556C163.211 59.7636 163.307 60.0456 163.499 60.2016C163.691 60.3576 163.997 60.4356 164.417 60.4356C164.669 60.4356 164.945 60.4176 165.245 60.3816V62.4336C164.681 62.4936 164.213 62.5236 163.841 62.5236C162.881 62.5236 162.161 62.3076 161.681 61.8756C161.213 61.4316 160.979 60.6396 160.979 59.4996V55.4316H159.287V53.4336H160.979V51.2196L163.211 50.4636V53.4336H165.209V55.4316H163.211V59.3556ZM177.384 55.7736H184.17V56.8176C184.17 57.8736 183.882 58.8516 183.306 59.7516C182.742 60.6396 181.974 61.3476 181.002 61.8756C180.03 62.4036 178.974 62.6676 177.834 62.6676C176.658 62.6676 175.572 62.3796 174.576 61.8036C173.58 61.2156 172.788 60.4236 172.2 59.4276C171.624 58.4316 171.336 57.3456 171.336 56.1696C171.336 54.9936 171.624 53.9076 172.2 52.9116C172.788 51.9156 173.58 51.1296 174.576 50.5536C175.572 49.9656 176.658 49.6716 177.834 49.6716C178.914 49.6716 179.916 49.9236 180.84 50.4276C181.776 50.9316 182.538 51.6096 183.126 52.4616L181.272 53.9016C180.9 53.3376 180.408 52.8876 179.796 52.5516C179.184 52.2036 178.53 52.0296 177.834 52.0296C177.09 52.0296 176.394 52.2156 175.746 52.5876C175.11 52.9596 174.606 53.4636 174.234 54.0996C173.862 54.7356 173.676 55.4256 173.676 56.1696C173.676 56.9136 173.862 57.6036 174.234 58.2396C174.606 58.8756 175.11 59.3796 175.746 59.7516C176.394 60.1236 177.09 60.3096 177.834 60.3096C178.698 60.3096 179.454 60.0996 180.102 59.6796C180.762 59.2596 181.236 58.7016 181.524 58.0056H177.384V55.7736ZM187.916 55.9536C187.916 56.2056 188.054 56.3976 188.33 56.5296C188.618 56.6496 189.068 56.7756 189.68 56.9076C190.376 57.0516 190.958 57.2136 191.426 57.3936C191.894 57.5736 192.296 57.8616 192.632 58.2576C192.98 58.6416 193.154 59.1636 193.154 59.8236C193.154 60.4116 192.974 60.9216 192.614 61.3536C192.266 61.7856 191.798 62.1156 191.21 62.3436C190.622 62.5596 189.98 62.6676 189.284 62.6676C188.336 62.6676 187.52 62.4876 186.836 62.1276C186.164 61.7676 185.666 61.2516 185.342 60.5796L187.178 59.6256C187.502 60.4536 188.204 60.8676 189.284 60.8676C189.752 60.8676 190.154 60.7776 190.49 60.5976C190.826 60.4176 190.994 60.1596 190.994 59.8236C190.994 59.5356 190.838 59.3256 190.526 59.1936C190.226 59.0496 189.734 58.8936 189.05 58.7256C188.342 58.5576 187.766 58.3896 187.322 58.2216C186.878 58.0536 186.494 57.7956 186.17 57.4476C185.846 57.0876 185.684 56.6136 185.684 56.0256C185.684 55.4496 185.846 54.9516 186.17 54.5316C186.494 54.0996 186.932 53.7696 187.484 53.5416C188.036 53.3136 188.642 53.1996 189.302 53.1996C190.082 53.1996 190.778 53.3616 191.39 53.6856C192.014 54.0096 192.494 54.4716 192.83 55.0716L191.012 55.9896C190.7 55.3176 190.13 54.9816 189.302 54.9816C188.882 54.9816 188.546 55.0716 188.294 55.2516C188.042 55.4196 187.916 55.6536 187.916 55.9536ZM202.72 60.6876C202.276 61.2996 201.718 61.7856 201.046 62.1456C200.374 62.5056 199.648 62.6856 198.868 62.6856C198.016 62.6856 197.224 62.4756 196.492 62.0556C195.772 61.6236 195.196 61.0476 194.764 60.3276C194.344 59.5956 194.134 58.8036 194.134 57.9516C194.134 57.0996 194.344 56.3136 194.764 55.5936C195.196 54.8616 195.772 54.2856 196.492 53.8656C197.224 53.4336 198.016 53.2176 198.868 53.2176C199.636 53.2176 200.356 53.3976 201.028 53.7576C201.7 54.1056 202.258 54.5796 202.702 55.1796L200.866 56.4216C200.302 55.7616 199.636 55.4316 198.868 55.4316C198.412 55.4316 197.992 55.5456 197.608 55.7736C197.224 56.0016 196.918 56.3076 196.69 56.6916C196.462 57.0756 196.348 57.4956 196.348 57.9516C196.348 58.4076 196.462 58.8276 196.69 59.2116C196.918 59.5956 197.224 59.9016 197.608 60.1296C197.992 60.3456 198.412 60.4536 198.868 60.4536C199.636 60.4536 200.302 60.1236 200.866 59.4636L202.72 60.6876ZM208.096 62.6856C207.244 62.6856 206.452 62.4756 205.72 62.0556C205 61.6236 204.424 61.0476 203.992 60.3276C203.572 59.5956 203.362 58.8036 203.362 57.9516C203.362 57.0996 203.572 56.3136 203.992 55.5936C204.424 54.8616 205 54.2856 205.72 53.8656C206.452 53.4336 207.244 53.2176 208.096 53.2176C208.948 53.2176 209.734 53.4336 210.454 53.8656C211.186 54.2856 211.762 54.8616 212.182 55.5936C212.614 56.3136 212.83 57.0996 212.83 57.9516C212.83 58.8036 212.614 59.5956 212.182 60.3276C211.762 61.0476 211.186 61.6236 210.454 62.0556C209.734 62.4756 208.948 62.6856 208.096 62.6856ZM208.078 60.4536C208.534 60.4536 208.954 60.3456 209.338 60.1296C209.722 59.9016 210.028 59.5956 210.256 59.2116C210.484 58.8276 210.598 58.4076 210.598 57.9516C210.598 57.4956 210.484 57.0756 210.256 56.6916C210.028 56.3076 209.722 56.0016 209.338 55.7736C208.954 55.5456 208.534 55.4316 208.078 55.4316C207.622 55.4316 207.202 55.5456 206.818 55.7736C206.434 56.0016 206.128 56.3076 205.9 56.6916C205.684 57.0756 205.576 57.4956 205.576 57.9516C205.576 58.4076 205.684 58.8276 205.9 59.2116C206.128 59.5956 206.434 59.9016 206.818 60.1296C207.202 60.3456 207.622 60.4536 208.078 60.4536ZM219.601 53.2536L219.439 55.3596C219.367 55.3356 219.241 55.3236 219.061 55.3236C218.317 55.3236 217.699 55.5396 217.207 55.9716C216.727 56.4036 216.487 56.9916 216.487 57.7356V62.4336H214.255V53.4336H216.487V54.9456C216.691 54.4656 217.039 54.0636 217.531 53.7396C218.023 53.4156 218.617 53.2536 219.313 53.2536H219.601ZM224.813 53.1996C225.677 53.1996 226.451 53.4156 227.135 53.8476C227.831 54.2676 228.371 54.8376 228.755 55.5576C229.139 56.2776 229.331 57.0756 229.331 57.9516C229.331 58.2396 229.307 58.5036 229.259 58.7436H222.311C222.491 59.3796 222.809 59.8776 223.265 60.2376C223.721 60.5856 224.303 60.7596 225.011 60.7596C225.443 60.7596 225.857 60.6636 226.253 60.4716C226.661 60.2796 226.967 60.0336 227.171 59.7336L228.881 60.7416C228.461 61.3656 227.915 61.8456 227.243 62.1816C226.583 62.5056 225.821 62.6676 224.957 62.6676C223.997 62.6676 223.145 62.4636 222.401 62.0556C221.657 61.6476 221.081 61.0836 220.673 60.3636C220.277 59.6436 220.079 58.8336 220.079 57.9336C220.079 57.0456 220.277 56.2416 220.673 55.5216C221.081 54.8016 221.645 54.2376 222.365 53.8296C223.085 53.4096 223.901 53.1996 224.813 53.1996ZM227.243 56.9976C227.147 56.4216 226.877 55.9716 226.433 55.6476C226.001 55.3116 225.455 55.1436 224.795 55.1436C224.339 55.1436 223.919 55.2276 223.535 55.3956C223.163 55.5636 222.863 55.7916 222.635 56.0796C222.407 56.3676 222.287 56.6736 222.275 56.9976H227.243Z" fill="#FC5842"/>
</g>
<defs>
<filter id="filter0_d_2411_65638" x="0.499512" y="0.433594" width="364" height="128" filterUnits="userSpaceOnUse" color-interpolation-filters="sRGB">
<feFlood flood-opacity="0" result="BackgroundImageFix"/>
<feColorMatrix in="SourceAlpha" type="matrix" values="0 0 0 0 0 0 0 0 0 0 0 0 0 0 0 0 0 0 127 0" result="hardAlpha"/>
<feOffset dy="8"/>
<feGaussianBlur stdDeviation="14"/>
<feComposite in2="hardAlpha" operator="out"/>
<feColorMatrix type="matrix" values="0 0 0 0 0 0 0 0 0 0 0 0 0 0 0 0 0 0 0.06 0"/>
<feBlend mode="normal" in2="BackgroundImageFix" result="effect1_dropShadow_2411_65638"/>
<feBlend mode="normal" in="SourceGraphic" in2="effect1_dropShadow_2411_65638" result="shape"/>
</filter>
</defs>
</svg>
