<svg width="36" height="37" viewBox="0 0 36 37" fill="none" xmlns="http://www.w3.org/2000/svg">
<path d="M22.2789 8.09638V8.0918H23.4719L23.9078 8.17886C24.1984 8.23538 24.4623 8.30945 24.6994 8.4011C24.9364 8.49275 25.1659 8.59967 25.3876 8.72186C25.6094 8.84404 25.8106 8.96854 25.9911 9.09531C26.17 9.22057 26.3306 9.35346 26.4729 9.49397C26.6136 9.63602 26.8331 9.67268 27.1313 9.60394C27.4296 9.53521 27.7508 9.43974 28.0949 9.31755C28.4391 9.19537 28.7794 9.0579 29.1159 8.90515C29.4524 8.7524 29.6574 8.65542 29.7308 8.61418C29.8027 8.57142 29.8409 8.54851 29.8455 8.54544L29.8501 8.53857L29.873 8.52711L29.896 8.51566L29.9189 8.5042L29.9418 8.49275L29.9464 8.48587L29.9533 8.48129L29.9602 8.47671L29.9648 8.46983L29.9877 8.46296L30.0107 8.45838L30.0061 8.49275L29.9992 8.52711L29.9877 8.56148L29.9763 8.59585L29.9648 8.61876L29.9533 8.64167L29.9418 8.67604C29.9342 8.69895 29.9266 8.72949 29.9189 8.76768C29.9113 8.80587 29.8386 8.9586 29.7009 9.22591C29.5633 9.49321 29.3912 9.76432 29.1847 10.0393C28.9782 10.3142 28.7932 10.5219 28.6295 10.6624C28.4643 10.8045 28.355 10.9038 28.3014 10.9603C28.2479 11.0183 28.1829 11.0718 28.1064 11.1207L27.9917 11.1963L27.9687 11.2077L27.9458 11.2192L27.9412 11.2261L27.9343 11.2306L27.9274 11.2352L27.9229 11.2421L27.8999 11.2536L27.877 11.265L27.8724 11.2719L27.8655 11.2765L27.8586 11.2811L27.854 11.2879L27.8495 11.2948L27.8426 11.2994L27.8357 11.304L27.8311 11.3108H27.9458L28.5882 11.1734C29.0165 11.0817 29.4256 10.971 29.8157 10.8412L30.4351 10.635L30.5039 10.612L30.5384 10.6006L30.5613 10.5891L30.5842 10.5777L30.6072 10.5662L30.6301 10.5548L30.676 10.5479L30.7219 10.5433V10.5891L30.7104 10.5937L30.699 10.6006L30.6944 10.6075L30.6875 10.612L30.6806 10.6166L30.676 10.6235L30.6714 10.6304L30.6645 10.635L30.6577 10.6395L30.6531 10.6464L30.6485 10.6533L30.6416 10.6579L30.6301 10.6808L30.6187 10.7037L30.6118 10.7083C30.6087 10.7129 30.5116 10.8427 30.3204 11.0978C30.1292 11.3544 30.026 11.4842 30.0107 11.4873C29.9954 11.4918 29.974 11.5147 29.9464 11.556C29.9204 11.5987 29.7583 11.7691 29.46 12.0669C29.1618 12.3648 28.8697 12.6298 28.5836 12.8619C28.2961 13.0956 28.1508 13.3828 28.1477 13.7234C28.1431 14.0625 28.1255 14.4459 28.0949 14.8736C28.0643 15.3012 28.007 15.7633 27.9229 16.2597C27.8387 16.7561 27.7087 17.3174 27.5328 17.9437C27.3569 18.5699 27.1428 19.1809 26.8904 19.7766C26.638 20.3723 26.3742 20.9069 26.0989 21.3804C25.8236 21.8539 25.5712 22.2548 25.3418 22.5832C25.1123 22.9116 24.8791 23.2209 24.642 23.5111C24.4049 23.8013 24.1052 24.1282 23.7427 24.4917C23.3786 24.8537 23.1798 25.0523 23.1461 25.0874C23.111 25.121 22.9611 25.2463 22.6964 25.4632C22.4334 25.6816 22.1504 25.9 21.8475 26.1184C21.5462 26.3353 21.2694 26.5163 21.017 26.6614C20.7646 26.8065 20.4603 26.9722 20.1039 27.1586C19.749 27.3465 19.3651 27.5206 18.9521 27.681C18.5392 27.8414 18.1032 27.9903 17.6444 28.1278C17.1855 28.2652 16.742 28.3721 16.3137 28.4485C15.8854 28.5249 15.3998 28.5898 14.8568 28.6433L14.0423 28.7234V28.7349H12.551V28.7234L12.356 28.712C12.226 28.7044 12.1189 28.6967 12.0348 28.6891C11.9507 28.6815 11.6333 28.6394 11.0827 28.5631C10.532 28.4867 10.0999 28.4103 9.78638 28.334C9.47284 28.2576 9.00632 28.1125 8.38686 27.8986C7.7674 27.6848 7.23741 27.4687 6.79691 27.2502C6.35794 27.0333 6.08262 26.8959 5.97096 26.8378C5.86083 26.7813 5.73694 26.7111 5.59928 26.6271L5.39279 26.501L5.38823 26.4942L5.38132 26.4896L5.37444 26.485L5.36985 26.4781L5.34691 26.4667L5.32396 26.4552L5.3194 26.4484L5.31249 26.4438L5.30561 26.4392L5.30102 26.4323L5.29645 26.4254L5.28955 26.4209H5.27808V26.375L5.30102 26.3796L5.32396 26.3865L5.42721 26.3979C5.49604 26.4056 5.68341 26.417 5.98931 26.4323C6.29523 26.4476 6.62024 26.4476 6.96439 26.4323C7.30853 26.417 7.66034 26.3827 8.01977 26.3292C8.37922 26.2758 8.80366 26.1841 9.29311 26.0543C9.78257 25.9244 10.2323 25.7702 10.6422 25.5915C11.0506 25.4112 11.3412 25.2768 11.514 25.1882C11.6853 25.1012 11.9469 24.9393 12.2986 24.7025L12.8263 24.3474L12.8309 24.3405L12.8378 24.3359L12.8447 24.3313L12.8493 24.3245L12.8539 24.3176L12.8607 24.313L12.8677 24.3084L12.8722 24.3016L12.8952 24.2947L12.9181 24.2901L12.9227 24.2672L12.9296 24.2443L12.9365 24.2397L12.941 24.2328L12.7575 24.2214C12.6352 24.2137 12.5166 24.2061 12.4019 24.1985C12.2872 24.1908 12.1075 24.1565 11.8627 24.0954C11.618 24.0343 11.3542 23.9426 11.0712 23.8204C10.7882 23.6982 10.5129 23.5531 10.2452 23.3851C9.97759 23.2171 9.78409 23.0773 9.66478 22.9658C9.54702 22.8558 9.39406 22.7001 9.20592 22.4984C9.01933 22.2953 8.85719 22.0868 8.71953 21.873C8.58187 21.6591 8.45034 21.4124 8.32493 21.1329L8.13448 20.7159L8.12301 20.6816L8.11154 20.6472L8.10466 20.6243L8.10007 20.6014L8.13448 20.606L8.1689 20.6128L8.42127 20.6472C8.58954 20.6701 8.85338 20.6777 9.21281 20.6701C9.57226 20.6625 9.8208 20.6472 9.95846 20.6243C10.0961 20.6014 10.1802 20.5861 10.2108 20.5785L10.2567 20.567L10.3141 20.5556L10.3714 20.5441L10.376 20.5372L10.3829 20.5326L10.3898 20.5281L10.3944 20.5212L10.3485 20.5097L10.3026 20.4983L10.2567 20.4868L10.2108 20.4754L10.1649 20.4639C10.1344 20.4563 10.0808 20.441 10.0043 20.4181C9.92787 20.3952 9.72139 20.3112 9.38488 20.1661C9.0484 20.021 8.78072 19.8797 8.58187 19.7422C8.38253 19.6043 8.19246 19.4536 8.01289 19.2909C7.83393 19.1259 7.6374 18.9136 7.42325 18.6539C7.20912 18.3943 7.01794 18.0926 6.84967 17.7489C6.68143 17.4053 6.55525 17.0769 6.47111 16.7637C6.38732 16.4524 6.33204 16.1342 6.30595 15.8129L6.26463 15.3318L6.28757 15.3364L6.31051 15.3432L6.33346 15.3547L6.3564 15.3661L6.37934 15.3776L6.40228 15.3891L6.7579 15.5494C6.995 15.6564 7.28942 15.748 7.64121 15.8244C7.99302 15.9007 8.20331 15.9428 8.27214 15.9504L8.37539 15.9618H8.58187L8.57731 15.955L8.5704 15.9504L8.56352 15.9458L8.55893 15.9389L8.55436 15.9321L8.54746 15.9275L8.54058 15.9229L8.53599 15.916L8.51304 15.9046L8.4901 15.8931L8.48554 15.8862L8.47863 15.8816L8.47175 15.8771L8.46716 15.8702L8.44422 15.8587L8.42127 15.8473L8.41671 15.8404C8.41212 15.8373 8.34634 15.7885 8.21937 15.6938C8.09394 15.5975 7.96241 15.4731 7.82475 15.3203C7.68709 15.1676 7.54944 15.0072 7.41178 14.8392C7.27387 14.6708 7.15103 14.4906 7.04469 14.3008C6.93764 14.1098 6.82444 13.867 6.70513 13.5722C6.58737 13.2789 6.49789 12.9834 6.4367 12.6855C6.37553 12.3877 6.34112 12.0936 6.33346 11.8034C6.32582 11.5132 6.33346 11.265 6.3564 11.0588C6.37934 10.8526 6.42523 10.6197 6.49406 10.36C6.56289 10.1004 6.66232 9.82543 6.79232 9.53521L6.98733 9.0999L6.9988 9.06553L7.01028 9.03116L7.01718 9.02658L7.02175 9.01971L7.02634 9.01283L7.03322 9.00825L7.04012 9.01283L7.04469 9.01971L7.04928 9.02658L7.05616 9.03116L7.06307 9.03574L7.06763 9.04262L7.07222 9.04949L7.0791 9.05407L7.09058 9.07698L7.10205 9.0999L7.10895 9.10448L7.11352 9.11135L7.42325 9.45502C7.62974 9.68413 7.87447 9.93999 8.15743 10.2226C8.44041 10.5051 8.59718 10.6517 8.62776 10.6624C8.65837 10.6747 8.69659 10.7098 8.74247 10.7678C8.78836 10.8244 8.94132 10.9595 9.20134 11.1734C9.46137 11.3872 9.80169 11.6354 10.2223 11.918C10.6429 12.2006 11.1094 12.4793 11.6218 12.7543C12.1342 13.0292 12.6849 13.2774 13.2737 13.4989C13.8626 13.7204 14.2756 13.8655 14.5126 13.9342C14.7497 14.0029 15.1551 14.0907 15.7286 14.1977C16.3022 14.3046 16.7343 14.3733 17.0249 14.4039C17.3155 14.4344 17.5144 14.452 17.6214 14.4566L17.782 14.4611L17.7775 14.4268L17.7706 14.3924L17.7247 14.106C17.6941 13.9151 17.6788 13.6478 17.6788 13.3041C17.6788 12.9605 17.7056 12.6435 17.7591 12.3533C17.8126 12.0631 17.8929 11.7691 18 11.4712C18.1071 11.1734 18.2118 10.9343 18.3143 10.7541C18.4183 10.5754 18.5545 10.3715 18.7227 10.1424C18.891 9.91325 19.1089 9.6765 19.3766 9.43211C19.6442 9.18771 19.9501 8.97006 20.2943 8.77914C20.6384 8.58822 20.9558 8.4431 21.2464 8.34382C21.537 8.24455 21.7818 8.17962 21.9806 8.14908C22.1795 8.11853 22.2789 8.10096 22.2789 8.09638Z" fill="white"/>
</svg>
